<?xml version="1.0" encoding="utf-8"?>
<!-- Generator: Adobe Illustrator 25.0.0, SVG Export Plug-In . SVG Version: 6.00 Build 0)  -->
<svg version="1.1" id="Layer_1" xmlns="http://www.w3.org/2000/svg" xmlns:xlink="http://www.w3.org/1999/xlink" x="0px" y="0px"
	 viewBox="0 0 24 41" style="enable-background:new 0 0 24 41;" xml:space="preserve">
<g>
	<path fill="#000000" d="M12,4.4c4.41,0,7.99,3.58,7.99,7.99c0,3.94-2.82,7.25-6.71,7.87L12,20.47l-1.28-0.21
		c-3.89-0.62-6.71-3.94-6.71-7.87C4.01,7.98,7.59,4.4,12,4.4 M12,0.46C5.41,0.46,0.07,5.8,0.07,12.39c0,5.94,4.35,10.85,10.03,11.76
		v14.53c0,1.05,0.85,1.9,1.9,1.9s1.9-0.85,1.9-1.9V24.15c5.68-0.91,10.03-5.82,10.03-11.76C23.93,5.8,18.59,0.46,12,0.46L12,0.46z"
		/>
</g>
</svg>
